#!OML:ASF E:\emotionWalksFemale\Project 1\Capture day 1\Session 1\Female1.ASF
:FULLY-SPECIFIED
:DEGREES
171
root 8.44316 15.0306 31.7754 -177.683 -1.57897 -175.228
lowerback 8.09787 1.29011 1.83566
upperback -2.66008 1.86995 -0.718562
thorax -7.26213 0.810785 -2.05254
lowerneck -3.26876 -4.56489 -10.0293
upperneck 9.3546 -6.99196 11.7507
head 4.06878 -3.44511 4.9136
rclavicle 5.90142e-015 3.97569e-015
rhumerus -38.216 20.4383 -99.8364
rradius 38.8282
rwrist 16.1914
rhand -6.74536 -45.0368
rfingers 7.12502
rthumb 19.1157 -74.1174
lclavicle 5.90142e-015 3.97569e-015
lhumerus -39.2759 4.08872 83.0135
lradius 34.6097
lwrist -12.2392
lhand -9.30298 -35.6862
lfingers 7.12502
lthumb 16.6548 -6.38078
rfemur 17.9625 11.8224 37.3414
rtibia -1.90833e-014
rfoot -10.7711 -27.9614
rtoes 18.443
lfemur -40.6223 -38.3243 3.88909
ltibia 23.77
lfoot -37.0003 34.6711
ltoes 10.577
172
root 8.4225 15.0165 31.6529 -177.575 -1.54538 -175.141
lowerback 8.05648 1.27469 2.09878
upperback -2.8648 1.87103 -0.782025
thorax -7.44724 0.790938 -2.27038
lowerneck -3.11735 -4.48298 -10.0546
upperneck 9.57951 -6.91602 11.6661
head 4.09941 -3.42063 4.8993
rclavicle 2.07792e-014 2.54444e-014
rhumerus -38.5592 20.2519 -100.096
rradius 38.7605
rwrist 15.8649
rhand -6.89719 -44.4506
rfingers 7.12502
rthumb 18.9697 -73.5456
lclavicle 2.07792e-014 2.54444e-014
lhumerus -39.7787 4.47713 82.5254
lradius 34.1272
lwrist -13.1399
lhand -9.53918 -35.7666
lfingers 7.12502
lthumb 16.4274 -6.44215
rfemur 18.3396 11.554 37.4168
rtibia 2.54444e-014
rfoot -10.7104 -27.9255
rtoes 18.1673
lfemur -40.9135 -38.5955 4.37399
ltibia 23.6242
lfoot -37.0885 34.6196
ltoes 13.3513
173
root 8.39947 15.024 31.527 -177.406 -1.40405 -175.213
lowerback 7.68235 1.33244 2.08596
upperback -2.92361 1.93379 -0.82397
thorax -7.28947 0.822433 -2.30479
lowerneck -2.99949 -4.40532 -9.83641
upperneck 9.55437 -6.79093 11.3492
head 4.04045 -3.36601 4.77365
rclavicle -4.95098e-015 -2.38542e-015
rhumerus -38.5849 20.0113 -100.087
rradius 38.5906
rwrist 15.8002
rhand -6.97062 -44.4628
rfingers 7.12502
rthumb 18.8991 -73.5647
lclavicle -4.95098e-015 -2.38542e-015
lhumerus -40.1033 4.74537 82.2281
lradius 33.7611
lwrist -13.8995
lhand -9.56692 -35.498
lfingers 7.12502
lthumb 16.4007 -6.17137
rfemur 18.6596 11.4125 37.2601
rtibia 6.36111e-015
rfoot -10.2697 -27.7667
rtoes 16.99
lfemur -40.2804 -37.4039 3.41446
ltibia 23.6109
lfoot -36.3229 33.2428
ltoes 15.0122
174
root 8.37568 15.024 31.3977 -177.322 -1.1447 -175.243
lowerback 7.37406 1.40881 2.13292
upperback -2.91953 2.02939 -0.878018
thorax -7.09853 0.86884 -2.38996
lowerneck -3.03538 -4.36858 -9.64211
upperneck 9.52294 -6.71615 11.132
head 4.01583 -3.32747 4.6769
rclavicle -1.45672e-014 4.13472e-014
rhumerus -38.5387 19.7439 -100.098
rradius 38.3696
rwrist 16.0014
rhand -6.57371 -45.0162
rfingers 7.12502
rthumb 19.2808 -74.0804
lclavicle -1.45672e-014 4.13472e-014
lhumerus -40.2832 5.1706 81.8166
lradius 33.3504
lwrist -14.7912
lhand -9.34584 -35.0383
lfingers 7.12502
lthumb 16.6135 -5.72935
rfemur 19.0739 11.3655 37.1422
rtibia -9.54166e-015
rfoot -9.85976 -27.6295
rtoes 15.8121
lfemur -39.2911 -35.5549 1.96547
ltibia 23.7198
lfoot -34.3098 31.8647
ltoes 14.5816
175
root 8.35073 15.0209 31.2688 -177.311 -0.938422 -175.206
lowerback 7.14317 1.43203 2.28164
upperback -2.91794 2.06717 -0.914483
thorax -6.95543 0.882112 -2.50843
lowerneck -2.99709 -4.32452 -9.71533
upperneck 9.55708 -6.66331 11.1623
head 4.01705 -3.30484 4.70271
rclavicle -1.26539e-014 1.98785e-014
rhumerus -38.543 19.474 -100.171
rradius 38.127
rwrist 16.0577
rhand -6.35359 -45.4299
rfingers 7.12502
rthumb 19.4924 -74.4729
lclavicle -1.26539e-014 1.98785e-014
lhumerus -40.5782 5.47627 81.4218
lradius 33.0794
lwrist -15.4836
lhand -9.12942 -34.357
lfingers 7.12502
lthumb 16.8219 -5.06562
rfemur 19.5958 11.2493 37.1064
rtibia 1.59028e-014
rfoot -9.73301 -27.4731
rtoes 15.3468
lfemur -38.1815 -33.3258 0.30271
ltibia 23.9587
lfoot -31.386 32.458
ltoes 7.91349
176
root 8.31888 15.0191 31.1332 -177.35 -0.765918 -175.263
lowerback 6.96527 1.44097 2.51431
upperback -2.95124 2.08683 -1.05545
thorax -6.87458 0.878207 -2.78402
lowerneck -3.07673 -4.26604 -9.68055
upperneck 9.91774 -6.62206 11.1085
head 4.13093 -3.2877 4.68049
rclavicle -7.99798e-016 0
rhumerus -38.6221 19.0876 -100.317
rradius 37.8305
rwrist 15.9853
rhand -6.37766 -45.6496
rfingers 7.12502
rthumb 19.4693 -74.6948
lclavicle -7.99798e-016 0
lhumerus -41.0479 5.33105 81.1177
lradius 33.0392
lwrist -15.7805
lhand -8.82291 -33.7138
lfingers 7.12502
lthumb 17.1169 -4.44778
rfemur 20.2149 11.0951 36.9255
rtibia -3.49861e-014
rfoot -9.93146 -27.0296
rtoes 15.8541
lfemur -37.0749 -31.5484 -1.26929
ltibia 24.2051
lfoot -29.6984 31.5965
ltoes 5.11732
177
root 8.28326 15.017 30.9889 -177.446 -0.446385 -175.419
lowerback 6.65657 1.54002 2.42788
upperback -2.87494 2.20464 -1.03734
thorax -6.61161 0.947001 -2.71719
lowerneck -3.37996 -4.24849 -9.72402
upperneck 10.3586 -6.58138 10.8529
head 4.30419 -3.26939 4.60304
rclavicle -1.66808e-014 -3.02153e-014
rhumerus -38.6989 18.8416 -100.102
rradius 37.6418
rwrist 15.912
rhand -6.78126 -45.7935
rfingers 7.12502
rthumb 19.0812 -74.8775
lclavicle -1.66808e-014 -3.02153e-014
lhumerus -41.3414 5.50193 81.0712
lradius 32.9892
lwrist -16.4015
lhand -8.23262 -32.8225
lfingers 7.12502
lthumb 17.685 -3.60672
rfemur 20.9033 11.0718 36.6181
rtibia 4.13472e-014
rfoot -9.72983 -26.5394
rtoes 15.8292
lfemur -35.9198 -30.2698 -2.72073
ltibia 24.4982
lfoot -29.2216 30.1362
ltoes 5.82134
178
root 8.25245 15.0127 30.851 -177.526 -0.124825 -175.523
lowerback 6.50718 1.61915 2.40524
upperback -2.88605 2.30335 -1.0463
thorax -6.53166 0.997476 -2.71982
lowerneck -3.37753 -4.1907 -9.82641
upperneck 10.5164 -6.50777 10.8013
head 4.34497 -3.24073 4.6086
rclavicle -2.57317e-014 1.35174e-014
rhumerus -38.7988 18.4742 -99.9329
rradius 37.4285
rwrist 15.799
rhand -7.85813 -45.5765
rfingers 7.12502
rthumb 18.0453 -74.7594
lclavicle -2.57317e-014 1.35174e-014
lhumerus -41.6562 5.83764 80.822
lradius 32.9065
lwrist -17.1229
lhand -7.29963 -31.7451
lfingers 7.12502
lthumb 18.5826 -2.61265
rfemur 21.5326 11.0519 36.3951
rtibia 9.54166e-015
rfoot -9.15176 -26.3142
rtoes 15.1453
lfemur -34.9354 -29.1768 -3.90683
ltibia 24.77
lfoot -28.7076 28.735
ltoes 6.73771
179
root 8.22594 15.0128 30.7182 -177.603 0.0140954 -175.5
lowerback 6.46848 1.633 2.47305
upperback -2.94451 2.3748 -1.02826
thorax -6.56606 1.04833 -2.7496
lowerneck -3.34786 -4.14625 -9.93456
upperneck 10.7099 -6.46502 10.7774
head 4.3961 -3.22886 4.62249
rclavicle 1.16289e-014 -1.66979e-014
rhumerus -38.9467 18.1388 -99.8182
rradius 37.1906
rwrist 15.5212
rhand -8.64818 -45.4965
rfingers 7.12502
rthumb 17.2851 -74.7478
lclavicle 1.16289e-014 -1.66979e-014
lhumerus -42.0179 5.89216 80.6367
lradius 32.8844
lwrist -17.3177
lhand -6.40286 -31.0581
lfingers 7.12502
lthumb 19.445 -2.01042
rfemur 22.12 10.8568 36.326
rtibia 5.08889e-014
rfoot -8.66013 -26.0912
rtoes 15.1383
lfemur -34.255 -28.599 -4.59849
ltibia 24.9653
lfoot -27.5726 27.449
ltoes 8.03556
180
root 8.19916 15.0249 30.583 -177.602 0.161589 -175.63
lowerback 6.43763 1.7256 2.54447
upperback -3.08197 2.50417 -1.14678
thorax -6.67829 1.10458 -2.93179
lowerneck -3.38075 -4.17035 -9.97324
upperneck 11.0812 -6.52846 10.6703
head 4.51844 -3.27089 4.59026
rclavicle -1.35422e-014 2.70347e-014
rhumerus -39.3265 17.5626 -99.7838
rradius 37.0903
rwrist 15.471
rhand -8.71125 -45.8426
rfingers 7.12502
rthumb 17.2244 -75.0993
lclavicle -1.35422e-014 2.70347e-014
lhumerus -42.4833 5.58762 80.4963
lradius 32.9632
lwrist -17.1183
lhand -5.5285 -30.9
lfingers 7.12502
lthumb 20.2856 -1.93933
rfemur 22.6683 10.6937 36.0624
rtibia -6.36111e-015
rfoot -8.08807 -25.7756
rtoes 15.2943
lfemur -33.8315 -28.6328 -5.04971
ltibia 25.0731
lfoot -25.1059 28.9496
ltoes -1.76761
181
root 8.17272 15.0451 30.449 -177.516 0.339031 -175.977
lowerback 6.25124 1.89362 2.19148
upperback -3.16125 2.69667 -1.17354
thorax -6.65598 1.21633 -2.77814
lowerneck -3.39377 -4.28838 -10.1008
upperneck 11.3263 -6.66815 10.3995
head 4.60632 -3.35633 4.51607
rclavicle 5.41688e-015 -2.06736e-014
rhumerus -39.6189 17.1054 -99.4474
rradius 36.9246
rwrist 15.3552
rhand -8.06006 -46.4763
rfingers 7.12502
rthumb 17.8511 -75.677
lclavicle 5.41688e-015 -2.06736e-014
lhumerus -42.8284 5.49337 80.6295
lradius 33.0289
lwrist -16.9787
lhand -4.67799 -31.0113
lfingers 7.12502
lthumb 21.1028 -2.13966
rfemur 23.0846 10.5843 35.5299
rtibia 3.81667e-014
rfoot -7.25664 -25.4692
rtoes 14.16
lfemur -33.498 -28.7349 -5.63655
ltibia 25.0549
lfoot -22.4894 30.7669
ltoes -11.6355
182
root 8.14721 15.0642 30.314 -177.417 0.344265 -176.345
lowerback 6.10299 1.93696 1.83328
upperback -3.26332 2.72227 -1.25912
thorax -6.68898 1.24443 -2.66661
lowerneck -3.5313 -4.33891 -10.0437
upperneck 11.7301 -6.73999 10.1185
head 4.74949 -3.40285 4.40952
rclavicle 4.58447e-015 -3.18055e-014
rhumerus -39.8156 16.703 -99.254
rradius 36.5056
rwrist 15.4526
rhand -6.66251 -47.1881
rfingers 7.12502
rthumb 19.1954 -76.2608
lclavicle 4.58447e-015 -3.18055e-014
lhumerus -43.1515 5.35887 80.6392
lradius 33.0775
lwrist -16.6644
lhand -4.04089 -30.8761
lfingers 7.12502
lthumb 21.7147 -2.07403
rfemur 23.3853 10.3118 34.9738
rtibia 2.54444e-014
rfoot -6.07741 -24.9944
rtoes 12.8083
lfemur -33.0398 -28.4895 -6.46005
ltibia 24.8813
lfoot -23.6702 29.3099
ltoes -0.92187
183
root 8.11957 15.0845 30.1808 -177.33 0.811329 -176.725
lowerback 6.09064 2.05914 1.45977
upperback -3.50934 2.8567 -1.42348
thorax -6.94523 1.32285 -2.65327
lowerneck -3.3619 -4.24645 -9.82531
upperneck 12.1348 -6.68753 9.90936
head 4.8236 -3.39684 4.314
rclavicle 1.96051e-014 7.15625e-015
rhumerus -40.2592 16.2435 -99.3173
rradius 36.1226
rwrist 15.6892
rhand -5.80343 -47.4504
rfingers 7.12502
rthumb 20.0213 -76.439
lclavicle 1.96051e-014 7.15625e-015
lhumerus -43.6101 5.10742 80.4224
lradius 33.0588
lwrist -16.1333
lhand -3.42672 -30.6474
lfingers 7.12502
lthumb 22.3044 -1.91472
rfemur 23.7473 10.487 34.3867
rtibia -9.22361e-014
rfoot -4.66844 -24.4417
rtoes 13.3145
lfemur -32.2858 -27.9017 -7.39681
ltibia 24.6465
lfoot -25.7832 27.6204
ltoes 13.0859
184
root 8.08612 15.1036 30.0449 -177.335 1.01873 -177.187
lowerback 5.81802 2.11156 0.978582
upperback -3.55574 2.88496 -1.51027
thorax -6.85404 1.36222 -2.46657
lowerneck -2.9903 -4.10702 -9.89637
upperneck 12.1172 -6.55181 9.98973
head 4.74465 -3.3476 4.36834
rclavicle 1.4387e-014 4.77083e-015
rhumerus -40.5993 16.08 -99.2707
rradius 35.904
rwrist 15.3239
rhand -6.01474 -47.4706
rfingers 7.12502
rthumb 19.8182 -76.4802
lclavicle 1.4387e-014 4.77083e-015
lhumerus -43.8164 5.10433 80.3269
lradius 32.9893
lwrist -15.5731
lhand -2.60598 -30.3351
lfingers 7.12502
lthumb 23.0921 -1.69887
rfemur 24.2253 10.3922 33.7138
rtibia -6.04305e-014
rfoot -3.55258 -24.0233
rtoes 13.5802
lfemur -31.4482 -27.1802 -8.60852
ltibia 24.4163
lfoot -23.1165 27.4585
ltoes 10.0542
185
root 8.05242 15.1272 29.904 -177.438 1.0624 -177.661
lowerback 5.73689 2.13492 0.619834
upperback -3.6177 2.88454 -1.66276
thorax -6.88273 1.37829 -2.42411
lowerneck -2.79034 -4.00388 -9.92195
upperneck 12.2262 -6.47164 10.0992
head 4.73837 -3.31868 4.4168
rclavicle -8.32411e-015 1.59028e-015
rhumerus -41.0299 15.8902 -99.3217
rradius 35.7503
rwrist 14.8306
rhand -6.47069 -47.699
rfingers 7.12502
rthumb 19.3798 -76.7532
lclavicle -8.32411e-015 1.59028e-015
lhumerus -44.0777 4.99874 80.2167
lradius 32.9615
lwrist -15.0007
lhand -1.43622 -29.7157
lfingers 7.12502
lthumb 24.214 -1.22438
rfemur 24.7583 10.1208 33.0352
rtibia 3.18055e-015
rfoot -2.2902 -23.6614
rtoes 12.1809
lfemur -30.5211 -26.6129 -9.86652
ltibia 24.2159
lfoot -21.228 27.2051
ltoes 7.06928
